#!OML:ASF C:\Vicon Data\Big\jianyuan-13\jianyuan\Session 1\Capture.male.ASF
:FULLY-SPECIFIED
:DEGREES
56
root -8.755242 18.138807 -18.700693 7.570562 9.854666 0.113662
lowerback -8.294308 -0.207583 -0.108350 
upperback 2.601389 -0.310157 0.636660 
thorax 7.400430 -0.172970 0.685236 
lowerneck -3.020093 -3.239727 3.678587 
upperneck 2.053185 -4.407449 -2.501560 
head 1.004403 -2.210036 -1.471344 
rclavicle 0.000000 0.000000 
rhumerus -33.376514 -9.717617 -85.070312 
rradius 41.417038 
rwrist 18.756734 
rhand -18.013287 -19.175743 
rfingers 0.000000 
rthumb 8.257511 -48.994329 
lclavicle 0.000000 0.000000 
lhumerus -32.147466 20.282100 84.254555 
lradius 33.881269 
lwrist -41.545822 
lhand -23.237099 0.561911 
lfingers 0.000000 
lthumb 3.214121 30.517433 
rfemur -24.925701 1.847935 23.802340 
rtibia 33.225209 
rfoot -15.094853 -6.653603 
rtoes -26.753986 
lfemur -43.175393 5.860150 -16.276676 
ltibia 92.896757 
lfoot -1.518345 1.345256 
ltoes -41.043266 
57
root -8.768864 18.142855 -18.597974 7.450727 9.657242 0.182846
lowerback -8.208659 -0.035906 -0.130820 
upperback 2.647977 -0.070924 0.535126 
thorax 7.397317 -0.054412 0.625907 
lowerneck -2.968509 -3.318052 3.816718 
upperneck 1.970841 -4.514537 -2.581898 
head 0.961827 -2.263878 -1.519226 
rclavicle 0.000000 0.000000 
rhumerus -32.825218 -9.046055 -85.422890 
rradius 42.673502 
rwrist 17.922522 
rhand -18.090688 -19.353147 
rfingers 0.000000 
rthumb 8.182803 -49.174695 
lclavicle 0.000000 0.000000 
lhumerus -32.507988 20.268471 83.875666 
lradius 33.653727 
lwrist -41.050832 
lhand -23.181826 2.318974 
lfingers 0.000000 
lthumb 3.267527 32.273640 
rfemur -24.315445 2.064858 23.844491 
rtibia 33.101102 
rfoot -15.214105 -6.613872 
rtoes -27.172668 
lfemur -44.691011 5.960503 -16.609877 
ltibia 93.768243 
lfoot -2.009132 0.754039 
ltoes -40.532841 
58
root -8.780204 18.145989 -18.499567 7.297659 9.483691 0.218255
lowerback -8.071211 0.106660 -0.189585 
upperback 2.702367 0.127232 0.521433 
thorax 7.373510 0.040181 0.672864 
lowerneck -2.892154 -3.352848 3.628643 
upperneck 1.872435 -4.553538 -2.505496 
head 0.921661 -2.283882 -1.459133 
rclavicle 0.000000 0.000000 
rhumerus -32.052859 -8.467444 -85.647132 
rradius 43.493048 
rwrist 17.132736 
rhand -18.109154 -19.058960 
rfingers 0.000000 
rthumb 8.165000 -48.881202 
lclavicle 0.000000 0.000000 
lhumerus -33.097072 21.315219 83.016551 
lradius 33.114940 
lwrist -42.667666 
lhand -23.603802 2.833645 
lfingers 0.000000 
lthumb 2.859945 32.794218 
rfemur -23.686453 2.338855 23.910805 
rtibia 32.971013 
rfoot -15.581440 -6.716532 
rtoes -27.015378 
lfemur -46.195716 6.141719 -16.956266 
ltibia 94.503956 
lfoot -2.292812 0.520777 
ltoes -41.487309 
59
root -8.790211 18.149937 -18.398292 7.215663 9.186214 0.257577
lowerback -8.002920 0.302298 -0.227220 
upperback 2.713477 0.396915 0.466033 
thorax 7.342467 0.171980 0.673867 
lowerneck -2.778355 -3.378231 3.629336 
upperneck 1.719465 -4.585933 -2.460352 
head 0.854041 -2.299745 -1.439581 
rclavicle 0.000000 0.000000 
rhumerus -31.410059 -7.898456 -85.857721 
rradius 44.512300 
rwrist 16.437858 
rhand -18.445872 -19.233647 
rfingers 0.000000 
rthumb 7.839996 -49.068257 
lclavicle 0.000000 0.000000 
lhumerus -33.598848 22.135695 82.156402 
lradius 32.596547 
lwrist -43.045340 
lhand -23.838590 3.233822 
lfingers 0.000000 
lthumb 2.633237 33.197290 
rfemur -23.118949 2.470101 23.977463 
rtibia 32.817649 
rfoot -16.060611 -6.562351 
rtoes -26.701277 
lfemur -47.685180 6.312290 -17.302405 
ltibia 95.109736 
lfoot -2.529239 0.204272 
ltoes -41.339942 
60
root -8.801809 18.156808 -18.293276 6.889681 9.049136 0.319785
lowerback -7.764846 0.443025 -0.289365 
upperback 2.851836 0.596436 0.397768 
thorax 7.350130 0.268365 0.663946 
lowerneck -2.828947 -3.465731 3.709069 
upperneck 1.701413 -4.706322 -2.521453 
head 0.850180 -2.360557 -1.474872 
rclavicle 0.000000 0.000000 
rhumerus -30.649386 -7.447555 -86.069688 
rradius 45.430625 
rwrist 15.927362 
rhand -18.244251 -18.984033 
rfingers 0.000000 
rthumb 8.034601 -48.811257 
lclavicle 0.000000 0.000000 
lhumerus -34.127579 23.042655 81.215863 
lradius 32.177485 
lwrist -43.426869 
lhand -23.837456 3.298774 
lfingers 0.000000 
lthumb 2.634353 33.262242 
rfemur -22.233005 2.586842 24.040263 
rtibia 32.665569 
rfoot -16.447792 -6.520363 
rtoes -26.731999 
lfemur -48.790291 6.247251 -17.630285 
ltibia 95.516775 
lfoot -2.902221 0.014093 
ltoes -42.228767 
61
root -8.809010 18.156958 -18.193338 6.697238 8.857774 0.428449
lowerback -7.547339 0.543545 -0.334256 
upperback 2.871393 0.740396 0.324829 
thorax 7.243787 0.339191 0.630135 
lowerneck -2.668870 -3.535929 3.668937 
upperneck 1.618285 -4.792770 -2.567120 
head 0.793812 -2.404227 -1.477598 
rclavicle 0.000000 0.000000 
rhumerus -30.045683 -6.832562 -86.291827 
rradius 46.410459 
rwrist 15.366834 
rhand -18.604618 -19.181837 
rfingers 0.000000 
rthumb 7.686744 -49.022077 
lclavicle 0.000000 0.000000 
lhumerus -34.857840 24.316499 80.008386 
lradius 31.661805 
lwrist -44.561290 
lhand -24.005838 3.407209 
lfingers 0.000000 
lthumb 2.471741 33.372624 
rfemur -21.515565 2.603884 24.057934 
rtibia 32.485027 
rfoot -16.661930 -6.465267 
rtoes -27.160129 
lfemur -50.079044 6.250269 -18.046235 
ltibia 95.831688 
lfoot -3.265762 -0.200854 
ltoes -42.614971 
62
root -8.821679 18.165232 -18.087595 6.548130 8.481318 0.483623
lowerback -7.430896 0.742574 -0.421193 
upperback 2.892876 1.020873 0.245039 
thorax 7.195898 0.474947 0.631873 
lowerneck -2.635862 -3.560817 3.675791 
upperneck 1.652515 -4.825986 -2.501367 
head 0.799062 -2.419565 -1.457978 
rclavicle 0.000000 0.000000 
rhumerus -29.303534 -6.439367 -86.452160 
rradius 47.160065 
rwrist 14.997728 
rhand -18.431275 -18.969557 
rfingers 0.000000 
rthumb 7.854091 -48.803668 
lclavicle 0.000000 0.000000 
lhumerus -35.543967 25.180954 78.873241 
lradius 31.215782 
lwrist -45.349126 
lhand -23.984491 3.493924 
lfingers 0.000000 
lthumb 2.492339 33.459069 
rfemur -20.805804 2.810170 24.095299 
rtibia 32.267893 
rfoot -16.965954 -6.246207 
rtoes -26.963504 
lfemur -51.242125 6.422149 -18.373822 
ltibia 95.950519 
lfoot -3.500685 -0.451066 
ltoes -42.228592 
63
root -8.834946 18.165780 -17.983835 6.443753 8.099082 0.504965
lowerback -7.462498 0.909462 -0.812836 
upperback 2.992336 1.269574 0.476441 
thorax 7.303205 0.571580 1.130217 
lowerneck -2.728071 -3.617153 3.354570 
upperneck 1.633793 -4.891292 -2.585135 
head 0.811916 -2.455985 -1.432031 
rclavicle 0.000000 0.000000 
rhumerus -28.464902 -5.768637 -86.210043 
rradius 47.969786 
rwrist 14.532068 
rhand -18.293843 -18.787526 
rfingers 0.000000 
rthumb 7.986735 -48.616629 
lclavicle 0.000000 0.000000 
lhumerus -36.219034 26.685874 78.044567 
lradius 30.685881 
lwrist -46.647216 
lhand -24.213429 3.648543 
lfingers 0.000000 
lthumb 2.271231 33.616142 
rfemur -20.127512 2.817563 24.236074 
rtibia 31.930185 
rfoot -17.052380 -6.086407 
rtoes -27.946575 
lfemur -52.473124 6.614720 -18.647511 
ltibia 95.965635 
lfoot -4.031298 -0.926148 
ltoes -42.709015 
64
root -8.859544 18.172467 -17.873167 6.182760 7.225689 0.479003
lowerback -7.294399 1.231470 -1.021649 
upperback 3.043270 1.721212 0.473241 
thorax 7.244053 0.783735 1.301447 
lowerneck -2.645839 -3.671869 3.296672 
upperneck 1.652652 -4.960279 -2.544368 
head 0.803798 -2.489753 -1.408027 
rclavicle 0.000000 0.000000 
rhumerus -27.789331 -5.232447 -86.342520 
rradius 48.741579 
rwrist 13.981704 
rhand -18.614984 -19.037681 
rfingers 0.000000 
rthumb 7.676785 -48.878352 
lclavicle 0.000000 0.000000 
lhumerus -37.044855 27.735686 76.777957 
lradius 30.231437 
lwrist -47.512254 
lhand -24.005619 3.617390 
lfingers 0.000000 
lthumb 2.471957 33.582817 
rfemur -19.243170 3.194579 24.394807 
rtibia 31.554158 
rfoot -17.094589 -5.736476 
rtoes -28.206097 
lfemur -53.283304 7.273085 -18.802049 
ltibia 95.816487 
lfoot -4.485753 -1.468272 
ltoes -41.114551 
65
root -8.861965 18.173035 -17.767061 5.985220 6.999764 0.581493
lowerback -7.172089 1.347041 -1.050610 
upperback 3.090533 1.883937 0.384996 
thorax 7.221249 0.864616 1.243986 
lowerneck -2.577516 -3.730240 3.373127 
upperneck 1.643251 -5.037357 -2.617780 
head 0.783411 -2.528350 -1.443012 
rclavicle 0.000000 0.000000 
rhumerus -27.077974 -4.916577 -86.467970 
rradius 49.363674 
rwrist 13.789097 
rhand -18.613206 -18.999266 
rfingers 0.000000 
rthumb 7.678511 -48.839867 
lclavicle 0.000000 0.000000 
lhumerus -37.813665 28.562064 75.578203 
lradius 29.766505 
lwrist -48.310946 
lhand -24.136347 3.832997 
lfingers 0.000000 
lthumb 2.345679 33.799855 
rfemur -18.454279 3.116037 24.372993 
rtibia 31.246365 
rfoot -17.291069 -5.494748 
rtoes -28.444527 
lfemur -54.224324 7.163160 -19.199011 
ltibia 95.523920 
lfoot -4.949423 -1.685354 
ltoes -41.919436 
66
root -8.873369 18.175304 -17.665154 5.916512 6.565105 0.555818
lowerback -7.129804 1.514453 -1.083759 
upperback 3.091293 2.112911 0.354746 
thorax 7.191427 0.976507 1.259491 
lowerneck -2.557327 -3.749014 3.351423 
upperneck 1.619547 -5.062286 -2.567298 
head 0.773445 -2.540311 -1.422547 
rclavicle 0.000000 0.000000 
rhumerus -26.303236 -4.509429 -86.595655 
rradius 49.961519 
rwrist 13.445632 
rhand -18.439619 -18.998500 
rfingers 0.000000 
rthumb 7.846073 -48.832866 
lclavicle 0.000000 0.000000 
lhumerus -38.619172 29.376236 74.346847 
lradius 29.304104 
lwrist -49.153432 
lhand -24.303875 4.196702 
lfingers 0.000000 
lthumb 2.183864 34.165234 
rfemur -17.849559 3.409263 24.497689 
rtibia 30.981875 
rfoot -17.429131 -5.384208 
rtoes -28.478922 
lfemur -55.295260 7.238904 -19.346352 
ltibia 95.136768 
lfoot -5.307804 -2.015669 
ltoes -40.757744 
67
root -8.883064 18.175113 -17.557968 5.782066 6.261882 0.617978
lowerback -7.055088 1.631240 -1.145928 
upperback 3.112920 2.280480 0.270395 
thorax 7.167902 1.058243 1.225603 
lowerneck -2.559930 -3.776410 3.306574 
upperneck 1.651739 -5.099894 -2.421003 
head 0.787221 -2.557439 -1.369725 
rclavicle 0.000000 0.000000 
rhumerus -25.557948 -4.190631 -86.796937 
rradius 50.514946 
rwrist 12.984789 
rhand -18.568361 -19.040983 
rfingers 0.000000 
rthumb 7.721765 -48.880034 
lclavicle 0.000000 0.000000 
lhumerus -39.479077 30.168236 73.035308 
lradius 28.998652 
lwrist -49.548136 
lhand -23.868230 3.913638 
lfingers 0.000000 
lthumb 2.604628 33.877409 
rfemur -17.147897 3.654858 24.534846 
rtibia 30.723459 
rfoot -17.673934 -5.408657 
rtoes -28.376381 
lfemur -56.175830 7.206406 -19.617196 
ltibia 94.581526 
lfoot -5.880007 -2.300059 
ltoes -41.147307 
68
root -8.888033 18.175700 -17.450887 5.682659 5.969903 0.674664
lowerback -6.997417 1.736188 -1.203975 
upperback 3.102798 2.428950 0.224674 
thorax 7.119450 1.130243 1.226977 
lowerneck -2.481460 -3.846854 3.275033 
upperneck 1.654203 -5.190675 -2.401972 
head 0.773062 -2.602345 -1.356984 
rclavicle 0.000000 0.000000 
rhumerus -24.895907 -3.749687 -86.900942 
rradius 51.053745 
rwrist 13.082847 
rhand -18.512372 -19.238311 
rfingers 0.000000 
rthumb 7.775861 -49.075336 
lclavicle 0.000000 0.000000 
lhumerus -40.407811 30.971989 71.647017 
lradius 28.600098 
lwrist -49.878594 
lhand -23.624018 3.459045 
lfingers 0.000000 
lthumb 2.840457 33.419899 
rfemur -16.496852 3.617023 24.554509 
rtibia 30.479190 
rfoot -17.892325 -5.128066 
rtoes -28.314230 
lfemur -57.050082 7.064214 -19.847993 
ltibia 93.921573 
lfoot -6.479834 -2.495779 
ltoes -38.742986 
